<svg width="208" height="105" viewBox="0 0 208 105" fill="none" xmlns="http://www.w3.org/2000/svg">
<g clip-path="url(#clip0_137_1305)">
<path d="M107.63 105H100.31C99.9471 105 99.6478 104.709 99.6395 104.348C99.6258 103.813 99.6093 103.282 99.6066 102.747C99.6029 101.269 98.8944 100.413 97.4812 100.179C97.4483 100.174 97.4153 100.166 97.3796 100.157C95.6579 99.845 93.9362 99.5298 92.198 99.2146C91.8768 99.1571 91.561 99.3352 91.4457 99.6422C91.0695 100.651 90.6988 101.654 90.3143 102.687C90.1853 103.032 89.8008 103.21 89.4521 103.084C87.1043 102.232 84.8225 101.402 82.4967 100.555C82.1507 100.429 81.9694 100.045 82.093 99.6997C82.4774 98.6254 82.8399 97.6114 83.1859 96.6412C83.2957 96.337 83.1694 95.9972 82.8866 95.8355C80.8409 94.6543 78.8775 93.5224 76.8867 92.3714C76.6039 92.2097 76.2469 92.27 76.0382 92.5194C75.3435 93.3416 74.6433 94.1692 73.9348 95.0078C73.6959 95.2901 73.2703 95.3257 72.9875 95.0873C71.0571 93.4676 69.1954 91.9027 67.3116 90.3242C67.0288 90.0857 66.9931 89.6664 67.2265 89.3814C67.9487 88.5126 68.6379 87.6877 69.3162 86.871C69.5249 86.6216 69.5221 86.2599 69.3134 86.0105C67.8142 84.2318 66.3396 82.4861 64.8485 80.7184C64.6399 80.4718 64.2829 80.406 64.0001 80.5677C63.0609 81.1021 62.1328 81.6338 61.1717 82.1846C60.8505 82.3683 60.4386 82.2559 60.2546 81.938C59.0052 79.7811 57.7888 77.6736 56.5476 75.5305C56.3636 75.2126 56.4735 74.8015 56.792 74.6151C57.7585 74.0506 58.6922 73.5052 59.6011 72.9763C59.8812 72.8118 60.002 72.472 59.8894 72.1678C59.0848 69.9753 58.305 67.8459 57.5114 65.6808C57.4016 65.3794 57.094 65.1985 56.7755 65.2478C55.7211 65.4177 54.6529 65.5877 53.5573 65.7631C53.1948 65.8206 52.8516 65.5767 52.7884 65.2149C52.3546 62.7429 51.9372 60.3696 51.5143 57.9579C51.4511 57.5961 51.6928 57.2508 52.0525 57.1823C53.1591 56.974 54.2218 56.7767 55.2488 56.5848C55.5673 56.5245 55.7952 56.2477 55.7952 55.9271V49.0071C55.7952 48.6837 55.5645 48.4069 55.246 48.3494C54.1916 48.1548 53.1371 47.9575 52.0498 47.7574C51.6873 47.6889 51.4457 47.3436 51.5088 46.9791C51.9399 44.5455 52.3628 42.1557 52.7939 39.7165C52.8571 39.3548 53.203 39.1109 53.5655 39.1712C54.6776 39.352 55.7348 39.5247 56.77 39.6946C57.0885 39.7467 57.3988 39.5631 57.5087 39.2616C58.3105 37.0664 59.0958 34.9233 59.8839 32.7664C59.9965 32.4622 59.8729 32.1224 59.5928 31.958C58.6647 31.4153 57.7393 30.8754 56.7892 30.3191C56.4707 30.1327 56.3609 29.7216 56.5476 29.4037C57.7997 27.2414 59.0244 25.1257 60.2573 22.999C60.4413 22.6811 60.8505 22.5687 61.1717 22.7523L64.0083 24.3665C64.2911 24.5255 64.6481 24.4625 64.8568 24.2131C66.367 22.4207 67.8306 20.6832 69.3134 18.9237C69.5221 18.6771 69.5249 18.3153 69.3162 18.0659C68.627 17.2383 67.935 16.4051 67.2265 15.5528C66.9904 15.2678 67.0288 14.8457 67.3116 14.6101C69.2311 13.0041 71.0983 11.4419 72.9847 9.86062C73.2676 9.62493 73.6904 9.66056 73.9293 9.9401C74.6707 10.8089 75.3764 11.6338 76.0492 12.4203C76.2606 12.667 76.6176 12.7245 76.8977 12.5628C78.9379 11.3844 80.9068 10.2498 82.8921 9.10422C83.1722 8.94253 83.2985 8.60543 83.1886 8.30123C82.8289 7.29269 82.4664 6.27594 82.0957 5.23452C81.9722 4.88646 82.1534 4.50278 82.4994 4.37671C84.8746 3.51617 87.1592 2.69125 89.4576 1.85812C89.8036 1.73205 90.188 1.91019 90.3171 2.2555C90.7125 3.31611 91.0804 4.31094 91.4319 5.2537C91.5418 5.55242 91.8521 5.73056 92.1678 5.68123C94.4991 5.31399 96.7535 4.96868 98.9942 4.56307C99.2386 4.51922 99.5599 4.03414 99.5764 3.7409C99.6285 2.7214 99.6148 1.69642 99.6066 0.674184C99.6066 0.301464 99.9059 0 100.277 0H107.669C108.039 0 108.339 0.298724 108.339 0.668703V2.08558C108.339 4.42056 108.339 4.4096 110.659 4.8015C112.35 5.08926 114.039 5.40443 115.747 5.71412C116.068 5.77167 116.384 5.59353 116.497 5.28659C116.873 4.27805 117.246 3.27774 117.631 2.23906C117.76 1.89374 118.147 1.71561 118.493 1.84167C120.827 2.69125 123.112 3.52439 125.443 4.37397C125.789 4.50004 125.97 4.88372 125.847 5.22903C125.465 6.3006 125.103 7.3201 124.757 8.29301C124.649 8.59721 124.776 8.9343 125.056 9.096C127.091 10.2717 129.057 11.4091 131.056 12.5628C131.336 12.7245 131.693 12.6642 131.904 12.4176C132.599 11.6009 133.299 10.7732 134.016 9.93188C134.255 9.6496 134.68 9.61397 134.963 9.8524C136.883 11.4639 138.747 13.026 140.634 14.6101C140.916 14.8457 140.955 15.2678 140.719 15.5528C139.991 16.4298 139.296 17.2657 138.632 18.0687C138.426 18.3181 138.429 18.6798 138.637 18.9265C140.156 20.7298 141.619 22.4618 143.102 24.2213C143.311 24.4679 143.668 24.5337 143.951 24.372C144.881 23.8403 145.812 23.3059 146.776 22.7551C147.097 22.5714 147.507 22.6838 147.693 23.0017C148.937 25.1503 150.154 27.2551 151.398 29.4037C151.582 29.7216 151.474 30.1327 151.156 30.3191C150.192 30.8836 149.256 31.429 148.347 31.9607C148.067 32.1251 147.946 32.465 148.059 32.7692C148.86 34.9534 149.637 37.0828 150.439 39.2643C150.549 39.5658 150.859 39.7494 151.175 39.6974C152.23 39.5247 153.301 39.3493 154.391 39.1712C154.745 39.1136 155.088 39.3466 155.154 39.6974C155.154 39.6974 155.154 39.7001 155.154 39.7028C155.604 42.0871 156.055 44.4715 156.505 46.853L155.956 47.6779C154.86 47.9136 153.765 48.1466 152.68 48.3795C152.37 48.4453 152.15 48.7194 152.15 49.0345V55.9024C152.15 56.2176 152.372 56.4917 152.683 56.5574C153.74 56.7822 154.77 57.0014 155.794 57.2207L156.472 58.2429C156.022 60.5505 155.574 62.8608 155.113 65.2204C155.044 65.5767 154.704 65.8124 154.344 65.7548C153.243 65.5767 152.18 65.404 151.172 65.2396C150.854 65.1875 150.546 65.3712 150.434 65.6726C149.615 67.9062 148.836 70.0329 148.056 72.1651C147.943 72.4693 148.067 72.8091 148.347 72.9735C149.278 73.5189 150.203 74.0588 151.153 74.6151C151.472 74.8015 151.579 75.2126 151.395 75.5305C150.143 77.6928 148.918 79.8085 147.688 81.9298C147.504 82.2477 147.095 82.36 146.773 82.1764C145.771 81.6064 144.84 81.0747 143.94 80.5622C143.657 80.4005 143.3 80.4663 143.091 80.7157C141.573 82.5162 140.109 84.2538 138.629 86.0132C138.42 86.2626 138.418 86.6244 138.626 86.8738C139.315 87.7014 140.013 88.5346 140.721 89.3841C140.958 89.6664 140.919 90.0912 140.636 90.3297C138.711 91.9411 136.847 93.5032 134.96 95.0791C134.678 95.3148 134.255 95.2791 134.016 94.9996C133.272 94.1281 132.566 93.3004 131.893 92.5139C131.682 92.2672 131.325 92.2097 131.045 92.3714C129.002 93.5526 127.036 94.6927 125.05 95.841C124.77 96.0027 124.647 96.3398 124.754 96.644C125.111 97.6497 125.476 98.6665 125.847 99.7134C125.97 100.061 125.789 100.445 125.44 100.568C123.062 101.429 120.778 102.254 118.479 103.084C118.133 103.21 117.749 103.032 117.62 102.687C117.222 101.618 116.851 100.623 116.502 99.6833C116.39 99.3845 116.082 99.2064 115.766 99.2557C113.463 99.623 111.247 99.9875 109.025 100.314C108.443 100.399 108.317 100.675 108.322 101.202C108.333 102.246 108.308 103.29 108.292 104.334C108.286 104.699 107.987 104.992 107.622 104.992L107.63 105ZM103.94 26.2055C89.4054 26.2192 77.6446 38.0092 77.6611 52.5507C77.6775 66.947 89.496 78.7425 103.896 78.7342C118.507 78.726 130.292 66.9552 130.284 52.3808C130.273 37.9489 118.441 26.1918 103.94 26.2055Z" fill="black"/>
<path d="M30.1947 47.9815C29.7727 47.5615 29.5298 47.3172 29.285 47.0746C24.7761 42.5802 20.2637 38.0894 15.7659 33.5841C15.3694 33.1859 14.9803 32.737 14.7373 32.2411C14.1216 30.9867 14.5583 29.4173 15.6709 28.5956C16.8346 27.7358 18.4295 27.8136 19.5329 28.7856C19.6992 28.9322 19.8563 29.0897 20.0116 29.2472C25.5288 34.748 31.0516 40.2452 36.5633 45.7515C39.8225 49.0078 39.8116 53.1257 36.5341 56.3621C30.9237 61.901 25.3023 67.4326 19.6773 72.9569C18.5172 74.0973 17.1488 74.2982 15.859 73.5814C14.6989 72.9352 14.0431 71.565 14.4578 70.2726C14.6679 69.6155 15.1045 68.9657 15.5996 68.4715C20.1322 63.959 24.7012 59.4809 29.2594 54.9937C29.5042 54.753 29.749 54.5122 30.1728 54.0941C29.6266 54.0796 29.2996 54.0633 28.9744 54.0615C20.4793 54.0326 11.9842 53.9982 3.48905 53.9855C2.30522 53.9837 1.29128 53.6977 0.576964 52.7003C-0.789561 50.7907 0.405235 48.177 2.75464 47.9471C3.07069 47.9163 3.3904 47.929 3.70828 47.9308C12.1084 47.9561 20.5067 47.9851 28.9068 48.0104C29.2484 48.0104 29.59 47.996 30.1929 47.9833L30.1947 47.9815Z" fill="black"/>
<path d="M177.805 47.9815C178.227 47.5615 178.47 47.3172 178.715 47.0746C183.224 42.5802 187.736 38.0894 192.234 33.5841C192.631 33.1859 193.02 32.737 193.263 32.2411C193.878 30.9867 193.442 29.4173 192.329 28.5956C191.165 27.7358 189.571 27.8136 188.467 28.7856C188.301 28.9322 188.144 29.0897 187.988 29.2472C182.471 34.748 176.948 40.2452 171.437 45.7515C168.177 49.0078 168.188 53.1257 171.466 56.3621C177.076 61.901 182.698 67.4326 188.323 72.9569C189.483 74.0973 190.851 74.2982 192.141 73.5814C193.301 72.9352 193.957 71.565 193.542 70.2726C193.332 69.6155 192.895 68.9657 192.4 68.4715C187.868 63.959 183.299 59.4809 178.741 54.9937C178.496 54.753 178.251 54.5122 177.827 54.0941C178.373 54.0796 178.7 54.0633 179.026 54.0615C187.521 54.0326 196.016 53.9982 204.511 53.9855C205.695 53.9837 206.709 53.6977 207.423 52.7004C208.79 50.7907 207.595 48.177 205.245 47.9471C204.929 47.9163 204.61 47.929 204.292 47.9308C195.892 47.9561 187.493 47.9851 179.093 48.0104C178.752 48.0104 178.41 47.996 177.807 47.9833L177.805 47.9815Z" fill="black"/>
</g>
<defs>
<clipPath id="clip0_137_1305">
<rect width="208" height="105" fill="white"/>
</clipPath>
</defs>
</svg>
