<svg width="122" height="105" viewBox="0 0 122 105" fill="none" xmlns="http://www.w3.org/2000/svg">
<g clip-path="url(#clip0_137_1327)">
<path d="M111.584 105H64.3884C58.6443 105 53.9719 100.302 53.9719 94.5271V43.1488C53.9719 37.3735 58.6443 32.6758 64.3884 32.6758H111.584C117.328 32.6758 122 37.3735 122 43.1488V94.5271C122 100.302 117.328 105 111.584 105ZM64.3884 38.2399C61.6958 38.2399 59.5085 40.4416 59.5085 43.1463V94.5247C59.5085 97.2319 61.6982 99.4335 64.3884 99.4335H111.584C114.276 99.4335 116.466 97.2319 116.466 94.5247V43.1463C116.466 40.4391 114.276 38.2399 111.584 38.2399H64.3884Z" fill="black"/>
<path d="M50.5542 70.1743C49.2629 70.3952 47.9349 70.513 46.58 70.513C33.7785 70.5203 23.2717 59.9541 23.257 47.0635C23.2424 34.0428 33.6979 23.4814 46.6191 23.4691C52.9441 23.4618 58.698 25.9972 62.9212 30.1059H86.1148C86.0245 29.8555 85.9317 29.6052 85.8414 29.3499C85.7413 29.0775 85.8487 28.7731 86.0977 28.6259C86.9057 28.1497 87.7357 27.6613 88.595 27.1557C88.8782 26.9888 88.9758 26.6206 88.8098 26.3359C87.704 24.4116 86.6226 22.5266 85.5167 20.6024C85.3531 20.3152 84.987 20.217 84.7013 20.3815C83.8445 20.8748 83.0169 21.351 82.1894 21.8296C81.9379 21.9744 81.6206 21.918 81.4351 21.6946C80.1168 20.1189 78.8181 18.5652 77.4657 16.9527C77.2802 16.7318 77.2777 16.4078 77.4608 16.1844C78.054 15.4653 78.6692 14.7167 79.3161 13.9313C79.5261 13.6785 79.4919 13.3005 79.2404 13.087C77.5634 11.6708 75.9058 10.2693 74.1994 8.82609C73.948 8.61255 73.5696 8.64446 73.3572 8.89727C72.7201 9.65077 72.0976 10.392 71.48 11.1234C71.2944 11.3443 70.9746 11.3983 70.7256 11.2535C68.9485 10.2202 67.203 9.20161 65.3917 8.14867C65.1427 8.00386 65.0304 7.70196 65.1256 7.42952C65.4332 6.55575 65.7554 5.64516 66.0947 4.68548C66.2046 4.37623 66.0435 4.03261 65.7359 3.91971C63.6633 3.15884 61.6323 2.41515 59.5573 1.65182C59.2497 1.53892 58.9055 1.69846 58.7907 2.00771C58.4465 2.93548 58.1145 3.8338 57.7825 4.73703C57.6825 5.00947 57.3993 5.17146 57.1161 5.11992C55.5977 4.84257 54.0964 4.56031 52.5926 4.30259C50.5323 3.94916 50.5298 3.96143 50.5298 1.87027V0.598878C50.5298 0.267532 50.2637 0 49.9342 0H43.3625C43.0305 0 42.7645 0.27244 42.7669 0.603787C42.7742 1.51928 42.7864 2.43724 42.74 3.35028C42.7254 3.6129 42.4398 4.04734 42.2225 4.08661C40.2305 4.44986 38.2288 4.75912 36.1538 5.08801C35.873 5.13219 35.5972 4.97265 35.4995 4.70512C35.1871 3.8608 34.8599 2.96985 34.5084 2.01999C34.3937 1.71073 34.0544 1.55119 33.7443 1.6641C31.6986 2.41024 29.67 3.14902 27.5584 3.91971C27.2508 4.03261 27.0872 4.37623 27.1995 4.68794C27.5291 5.62062 27.8513 6.53366 28.1711 7.43443C28.2688 7.70687 28.1565 8.00877 27.9075 8.15358C26.1425 9.17952 24.3922 10.1981 22.5784 11.2511C22.3294 11.3959 22.0121 11.3443 21.8241 11.1234C21.226 10.419 20.6011 9.68022 19.9395 8.90217C19.7271 8.65182 19.3512 8.61992 19.0997 8.831C17.4226 10.2447 15.7627 11.6438 14.0563 13.0845C13.8048 13.2956 13.7707 13.676 13.9806 13.9288C14.6104 14.6897 15.2256 15.4383 15.8383 16.1795C16.0239 16.4029 16.0214 16.7269 15.8359 16.9478C14.5177 18.5259 13.2165 20.0796 11.8739 21.6848C11.6883 21.9057 11.371 21.9646 11.1195 21.8222L8.59781 20.3766C8.3122 20.2121 7.9509 20.3128 7.7849 20.5975C6.69126 22.4996 5.60005 24.3969 4.48688 26.3335C4.32332 26.6182 4.41853 26.9863 4.7017 27.1532C5.54635 27.6515 6.36902 28.135 7.19414 28.621C7.44314 28.7682 7.55299 29.0726 7.4529 29.345C6.74985 31.2766 6.05411 33.196 5.34129 35.162C5.24364 35.432 4.96779 35.5964 4.68461 35.5498C3.76429 35.3976 2.82444 35.243 1.83577 35.081C1.51353 35.027 1.20839 35.2479 1.1498 35.5694C0.766534 37.7539 0.390594 39.8941 0.00732962 42.0736C-0.0488173 42.3976 0.166006 42.7093 0.48824 42.7707C1.45494 42.9523 2.39235 43.1266 3.32976 43.3008C3.61294 43.3548 3.818 43.6027 3.818 43.8899V50.0873C3.818 50.3769 3.61538 50.6224 3.33221 50.6764C2.41921 50.8482 1.47447 51.0273 0.490682 51.2114C0.168447 51.2728 -0.0463762 51.582 0.012212 51.906C0.388152 54.0659 0.759211 56.1914 1.14492 58.4053C1.20106 58.7293 1.50865 58.9478 1.82844 58.8962C2.80247 58.7391 3.75209 58.587 4.6895 58.4348C4.97267 58.3881 5.24608 58.5526 5.34373 58.8226C6.04923 60.764 6.74252 62.6687 7.45779 64.6322C7.55787 64.9046 7.45046 65.2114 7.20146 65.3562C6.39588 65.8299 5.56344 66.3184 4.70414 66.824C4.42097 66.9909 4.32332 67.3566 4.48688 67.6438C5.58785 69.5631 6.67173 71.4506 7.78246 73.3822C7.94602 73.6694 8.3122 73.7675 8.59781 73.6031C9.45222 73.1122 10.2798 72.636 11.1122 72.155C11.3637 72.0102 11.681 72.0691 11.8665 72.29C13.1921 73.8731 14.503 75.4365 15.8359 77.0294C16.0214 77.2528 16.0239 77.5768 15.8383 77.8001C15.2354 78.5291 14.6251 79.2703 13.9806 80.0484C13.7707 80.3012 13.8048 80.6792 14.0563 80.8927C15.7285 82.3089 17.386 83.7079 19.1022 85.1585C19.3536 85.372 19.732 85.3401 19.9444 85.0873C20.5766 84.3338 21.1967 83.595 21.8143 82.8587C21.9998 82.6353 22.3196 82.5813 22.5686 82.7262C24.3385 83.7546 26.0864 84.7707 27.9026 85.8285C28.1516 85.9734 28.2639 86.2777 28.1687 86.5501C27.8611 87.419 27.5389 88.3271 27.1971 89.2893C27.0872 89.601 27.2484 89.9421 27.556 90.055C29.6236 90.8135 31.6547 91.5572 33.7394 92.3205C34.047 92.4334 34.3912 92.2738 34.506 91.9646C34.8477 91.0393 35.1773 90.141 35.5117 89.2377C35.6118 88.9653 35.895 88.8033 36.1806 88.8548C37.7259 89.1371 39.2565 89.4193 40.7871 89.6992C40.8164 89.7041 40.8457 89.7139 40.8774 89.7188C42.1354 89.9282 42.7653 90.6948 42.7669 92.0186C42.7669 92.4972 42.7815 92.9734 42.7962 93.452C42.806 93.7759 43.0696 94.0361 43.3918 94.0361H49.9C50.2247 94.0361 50.4908 93.7735 50.4956 93.4471C50.5127 92.5119 50.5323 91.5768 50.5225 90.6417C50.5225 90.5116 50.5298 90.3987 50.5518 90.3029V70.1767L50.5542 70.1743Z" fill="black"/>
<path d="M82.0771 45.8533C82.0771 59.9834 74.0847 72.2702 62.4086 78.3891V79.8912C74.8439 73.6619 83.4075 60.7443 83.4075 45.8533C83.4075 43.9904 83.2708 42.157 83.0121 40.3652H81.667C81.9355 42.157 82.0746 43.988 82.0746 45.8533H82.0771Z" fill="black"/>
<path d="M84.4377 45.8533C84.4377 61.3309 75.4322 74.7345 62.411 81.0448V82.5223C76.1865 76.1163 85.7681 62.0893 85.7681 45.8533C85.7681 43.9929 85.6388 42.1594 85.3946 40.3652H84.0496C84.301 42.1594 84.4353 43.9904 84.4353 45.8533H84.4377Z" fill="black"/>
<path d="M105.91 40.3652H93.0013C92.9354 40.5493 92.7816 40.699 92.579 40.7481C91.6123 40.9813 90.6822 41.2046 89.7814 41.4206C89.5031 41.4869 89.3152 41.7422 89.3274 42.0293L89.6276 48.1826C89.6423 48.4697 89.8571 48.7053 90.1403 48.7446C91.0801 48.8722 92.0176 48.9999 92.9891 49.1324C93.3114 49.1766 93.5408 49.476 93.4993 49.8C93.2259 51.9844 92.955 54.1272 92.6816 56.3165C92.6401 56.6405 92.3471 56.8736 92.0249 56.8368C91.0338 56.7239 90.0939 56.6159 89.1711 56.5104C88.888 56.4785 88.6219 56.6552 88.5364 56.9276C87.9237 58.9157 87.3232 60.8547 86.7202 62.8084C86.6348 63.0833 86.7593 63.3828 87.0132 63.5153C87.8578 63.9571 88.6976 64.3964 89.5593 64.8505C89.8498 65.0027 89.9621 65.3635 89.8132 65.6556C88.8025 67.6314 87.8114 69.5704 86.8179 71.5142C86.669 71.8063 86.3125 71.9217 86.022 71.7744L83.4466 70.4638C83.1903 70.3337 82.8778 70.4073 82.7045 70.6356C81.4473 72.2972 80.2316 73.9049 78.9988 75.5346C78.8255 75.7653 78.8377 76.0868 79.033 76.2979C79.6774 77.0023 80.3243 77.7166 80.9859 78.4406C81.2056 78.6836 81.191 79.0616 80.9517 79.2849C79.3259 80.7993 77.7465 82.2695 76.1499 83.7569C75.9107 83.9802 75.5372 83.9655 75.3126 83.7274C74.6193 82.9862 73.9627 82.2842 73.3353 81.6142C73.14 81.4056 72.8202 81.3687 72.5809 81.5234C70.8306 82.6598 69.1438 83.7544 67.4398 84.8614C67.2006 85.0185 67.103 85.3228 67.2128 85.5903C67.5741 86.4715 67.9378 87.36 68.3113 88.2706C68.4358 88.5749 68.2918 88.9234 67.9915 89.0511C66.1533 89.8267 64.3762 90.5753 62.5966 91.3239C63.368 94.7527 66.4121 97.3126 70.0543 97.3126H105.905C110.129 97.3126 113.554 93.8691 113.554 89.6229V48.0623C113.554 43.8161 110.129 40.3726 105.905 40.3726L105.91 40.3652Z" fill="black"/>
<path d="M70.1739 45.9861C70.0763 44.0545 69.7443 42.1891 69.2097 40.4146C65.3868 40.8416 62.411 44.0986 62.411 48.0576V64.6716C67.4862 60.1162 70.5426 53.3665 70.1739 45.9885V45.9861Z" fill="black"/>
<path d="M79.3967 45.8533C79.3967 43.9855 79.2429 42.1521 78.9524 40.3652H75.5763C75.8985 42.1471 76.0669 43.9806 76.0669 45.8533C76.0669 56.5006 70.6329 65.8961 62.4086 71.3842V75.3186C72.5516 69.4501 79.3967 58.4396 79.3967 45.8533Z" fill="black"/>
</g>
<defs>
<clipPath id="clip0_137_1327">
<rect width="122" height="105" fill="white"/>
</clipPath>
</defs>
</svg>
