<svg width="154" height="105" viewBox="0 0 154 105" fill="none" xmlns="http://www.w3.org/2000/svg">
<g clip-path="url(#clip0_138_1342)">
<path d="M89.0252 55.5763C89.0252 47.1709 91.5089 39.3466 95.7765 32.8103C95.771 32.7993 95.7683 32.7883 95.7628 32.7746C95.6512 32.4704 95.771 32.1306 96.0488 31.9662C96.2095 31.8703 96.3756 31.7743 96.539 31.6784C97.2308 30.6918 97.9634 29.7381 98.7341 28.8172C97.6202 26.8742 96.52 24.9585 95.4006 23.0072C95.2182 22.6866 94.8097 22.5769 94.491 22.7606C93.5351 23.3114 92.6119 23.8431 91.6887 24.3775C91.4081 24.5392 91.0541 24.4762 90.8471 24.2268C89.3765 22.4673 87.9276 20.7325 86.4189 18.932C86.2119 18.6853 86.2092 18.3235 86.4134 18.0742C87.0752 17.2712 87.7615 16.4353 88.4832 15.5583C88.7174 15.276 88.6793 14.854 88.3988 14.6155C86.5278 13.0342 84.6786 11.4693 82.775 9.85788C82.4945 9.61945 82.0723 9.65508 81.8354 9.93736C81.1246 10.7787 80.4301 11.6064 79.7411 12.4231C79.5341 12.6697 79.1774 12.73 78.8996 12.5683C76.9169 11.4145 74.9697 10.2772 72.9489 9.10148C72.6712 8.93979 72.5459 8.60269 72.6521 8.29849C72.9952 7.32284 73.3547 6.30608 73.7333 5.23452C73.8558 4.8892 73.6761 4.50552 73.3329 4.37945C71.0208 3.52987 68.7549 2.69948 66.44 1.84715C66.0969 1.72109 65.7129 1.89922 65.5849 2.24454C65.2009 3.28048 64.8305 4.28353 64.4601 5.29207C64.3484 5.59627 64.0325 5.77715 63.7166 5.7196C62.0227 5.40991 60.3478 5.09475 58.6702 4.80698C56.3716 4.41234 56.3689 4.42604 56.3689 2.09107V0.668703C56.3689 0.298724 56.072 0 55.7044 0H48.373C48.0026 0 47.7058 0.304205 47.7085 0.674184C47.7166 1.69642 47.7303 2.7214 47.6785 3.7409C47.6622 4.03414 47.3435 4.51922 47.1012 4.56307C44.8789 4.96868 42.6457 5.31399 40.3308 5.68123C40.0176 5.73056 39.7099 5.55242 39.6009 5.2537C39.2523 4.31094 38.8874 3.31611 38.4952 2.2555C38.3672 1.91019 37.9887 1.73205 37.6428 1.85812C35.3606 2.69125 33.0974 3.51617 30.7417 4.37671C30.3986 4.50278 30.2188 4.88646 30.3414 5.23452C30.709 6.27594 31.0685 7.29543 31.4253 8.30123C31.5315 8.60543 31.4089 8.94253 31.1312 9.10422C29.1621 10.2498 27.2095 11.3871 25.186 12.5628C24.9082 12.7245 24.5541 12.667 24.3444 12.4203C23.6772 11.6338 22.98 10.8089 22.242 9.9401C22.005 9.66056 21.5856 9.62493 21.3051 9.86062C19.4342 11.4392 17.5822 13.0013 15.6786 14.6101C15.3981 14.8457 15.36 15.2705 15.5942 15.5528C16.2968 16.4024 16.9831 17.2383 17.6667 18.0659C17.8736 18.3153 17.8709 18.6771 17.6639 18.9237C16.1933 20.6859 14.7417 22.4207 13.2439 24.2131C13.0369 24.4597 12.6829 24.5255 12.4023 24.3665L9.58907 22.7523C9.27043 22.5687 8.86737 22.6811 8.68218 22.999C7.4621 25.1229 6.24474 27.2414 5.00287 29.4037C4.8204 29.7216 4.92661 30.1327 5.24253 30.3191C6.18482 30.8754 7.10261 31.4153 8.02312 31.958C8.3009 32.1224 8.42346 32.4622 8.3118 32.7664C7.52746 34.9233 6.75129 37.0664 5.95606 39.2616C5.84712 39.5631 5.53938 39.7467 5.22346 39.6946C4.19674 39.5247 3.14823 39.352 2.04526 39.1712C1.68577 39.1109 1.34534 39.3575 1.27998 39.7165C0.852408 42.1557 0.433004 44.5455 0.00543078 46.9791C-0.0572074 47.3408 0.182452 47.6889 0.54194 47.7574C1.62041 47.9602 2.66619 48.1548 3.71198 48.3494C4.02789 48.4097 4.25666 48.6865 4.25666 49.0071V55.9271C4.25666 56.2505 4.03061 56.5245 3.7147 56.5848C2.69615 56.7767 1.64219 56.9767 0.544664 57.1823C0.185175 57.2508 -0.054484 57.5961 0.0108776 57.9579C0.430281 60.3696 0.844238 62.7429 1.27453 65.2149C1.33717 65.5767 1.68032 65.8206 2.03709 65.7631C3.12372 65.5877 4.18312 65.4177 5.22891 65.2478C5.54482 65.1958 5.84984 65.3794 5.95878 65.6808C6.74584 67.8486 7.51929 69.9753 8.31724 72.1678C8.4289 72.472 8.30907 72.8146 8.03129 72.9763C7.13256 73.5052 6.20389 74.0506 5.24525 74.6151C4.92934 74.8015 4.8204 75.2098 5.00287 75.5305C6.23112 77.6736 7.44031 79.7811 8.67945 81.938C8.86192 82.2586 9.27043 82.3683 9.58907 82.1846C10.5423 81.6365 11.4655 81.1048 12.3942 80.5677C12.6747 80.406 13.0287 80.4718 13.2357 80.7184C14.7145 82.4861 16.177 84.2318 17.6639 86.0105C17.8709 86.2599 17.8736 86.6216 17.6667 86.871C16.994 87.685 16.3131 88.5126 15.5942 89.3814C15.36 89.6637 15.3981 90.0857 15.6786 90.3242C17.5441 91.9055 19.3933 93.4676 21.3079 95.0873C21.5884 95.3257 22.0105 95.2901 22.2474 95.0078C22.9528 94.1665 23.6445 93.3416 24.3335 92.5194C24.5405 92.27 24.8973 92.2097 25.1751 92.3714C27.1495 93.5197 29.0995 94.6543 31.1257 95.8355C31.4035 95.9972 31.5288 96.337 31.4226 96.6412C31.0794 97.6114 30.7199 98.6254 30.3386 99.6997C30.2161 100.048 30.3958 100.429 30.739 100.555C33.0457 101.402 35.3116 102.232 37.6374 103.084C37.9805 103.21 38.3645 103.032 38.4925 102.687C38.8738 101.654 39.2414 100.651 39.6145 99.6422C39.7262 99.3379 40.0421 99.1571 40.3607 99.2146C42.0847 99.5298 43.7922 99.845 45.4998 100.157C45.5325 100.163 45.5652 100.174 45.6006 100.179C47.004 100.413 47.7067 101.269 47.7085 102.747C47.7085 103.282 47.7248 103.813 47.7412 104.348C47.7521 104.709 48.0462 105 48.4057 105H55.6662C56.0285 105 56.3253 104.707 56.3308 104.342C56.3498 103.298 56.3716 102.254 56.3607 101.21C56.3553 100.684 56.4805 100.407 57.0579 100.322C59.2611 99.9957 61.4589 99.6312 63.7438 99.264C64.057 99.2146 64.3648 99.3928 64.4737 99.6915C64.8223 100.632 65.1872 101.629 65.5821 102.695C65.7101 103.04 66.0887 103.216 66.4346 103.093C68.7141 102.262 70.9772 101.437 73.3357 100.577C73.6788 100.451 73.8613 100.067 73.7387 99.7216C73.3683 98.6747 73.0089 97.658 72.6548 96.6522C72.5486 96.348 72.6712 96.0109 72.9489 95.8492C74.9152 94.7009 76.8679 93.5635 78.8941 92.3796C79.1719 92.2179 79.5259 92.2755 79.7356 92.5221C80.4029 93.3087 81.1001 94.1363 81.8408 95.0078C82.0778 95.2874 82.4972 95.323 82.7777 95.0873C84.6487 93.5087 86.4978 91.9466 88.407 90.3379C88.6875 90.0994 88.7256 89.6774 88.4914 89.3924C87.7887 88.5428 87.0997 87.7096 86.4134 86.882C86.2064 86.6326 86.2092 86.2708 86.4161 86.0215C87.8868 84.262 89.3356 82.5272 90.8417 80.7239C91.0486 80.4772 91.4027 80.4115 91.6832 80.5704C92.5737 81.0829 93.4997 81.6146 94.4937 82.1846C94.8124 82.3683 95.2182 82.2559 95.4006 81.938C95.8309 81.1898 96.2612 80.4389 96.6915 79.6907C91.8657 72.8913 89.0279 64.5682 89.0279 55.5763H89.0252ZM51.9651 78.737C37.6836 78.7452 25.9621 66.947 25.9458 52.5534C25.9295 38.0146 37.5938 26.2219 52.0087 26.2082C66.391 26.1945 78.1261 37.9516 78.137 52.3835C78.1479 66.9579 66.4564 78.7288 51.9651 78.737Z" fill="black"/>
<path d="M154 58.4403C153.461 60.6766 153.085 62.9704 152.352 65.141C148.126 77.6572 135.612 85.9804 122.888 84.8403C108.895 83.5879 98.0423 73.4861 96.0351 59.8517C93.6903 43.9234 104.524 29.1653 120.467 26.57C135.865 24.0624 150.71 34.7479 153.504 50.3418C153.646 51.1339 153.834 51.9204 153.997 52.7097V58.4375L154 58.4403ZM121.796 54.5925C120.134 53.0194 118.598 51.5532 117.052 50.0979C114.554 47.7465 110.883 47.7438 108.508 50.0897C106.174 52.3945 105.997 56.0998 108.277 58.5718C111.253 61.7975 114.306 64.9601 117.419 68.0542C119.797 70.4193 123.501 70.4468 125.835 68.0433C131.164 62.5566 136.475 57.0453 141.63 51.3942C144.803 47.9164 142.739 42.3558 138.12 41.4678C135.838 41.0293 133.961 41.8049 132.387 43.463C128.836 47.2011 125.279 50.9338 121.796 54.5952V54.5925Z" fill="black"/>
<path d="M121.709 65.9331C121.009 65.4974 120.361 65.248 119.917 64.793C117.092 61.9209 114.304 59.0132 111.523 56.0972C110.494 55.0174 110.466 53.828 111.371 52.9702C112.239 52.1425 113.438 52.2412 114.478 53.2881C116.137 54.9598 117.76 56.6617 119.402 58.3472C121.292 60.2875 122.027 60.2766 123.928 58.2732C127.545 54.4665 131.159 50.6544 134.776 46.8477C135.056 46.5517 135.32 46.2338 135.639 45.9844C136.543 45.2801 137.499 45.2472 138.335 46.0475C139.168 46.845 139.215 47.8234 138.531 48.7497C138.104 49.3279 137.564 49.824 137.066 50.3502C132.578 55.0777 128.095 59.8107 123.585 64.5163C123.079 65.0452 122.409 65.4124 121.711 65.9304L121.709 65.9331Z" fill="black"/>
</g>
<defs>
<clipPath id="clip0_138_1342">
<rect width="154" height="105" fill="white"/>
</clipPath>
</defs>
</svg>
