<svg width="104" height="105" viewBox="0 0 104 105" fill="none" xmlns="http://www.w3.org/2000/svg">
<g clip-path="url(#clip0_138_1337)">
<path d="M55.5926 105H48.342C47.983 105 47.6866 104.709 47.6784 104.348C47.6648 103.813 47.6485 103.282 47.6458 102.747C47.6421 101.269 46.9405 100.413 45.5407 100.179C45.5081 100.174 45.4755 100.166 45.4401 100.157C43.7349 99.845 42.0297 99.5298 40.3081 99.2146C39.9899 99.1571 39.6771 99.3352 39.5629 99.6422C39.1903 100.651 38.8232 101.654 38.4424 102.687C38.3146 103.032 37.9338 103.21 37.5884 103.084C35.2631 102.232 33.0031 101.402 30.6995 100.555C30.3568 100.429 30.1774 100.045 30.2997 99.6997C30.6805 98.6254 31.0395 97.6114 31.3822 96.6412C31.4909 96.337 31.3658 95.9972 31.0857 95.8355C29.0596 94.6543 27.115 93.5224 25.1432 92.3714C24.8631 92.2097 24.5096 92.27 24.3029 92.5194C23.6148 93.3416 22.9213 94.1692 22.2196 95.0078C21.983 95.2901 21.5615 95.3257 21.2813 95.0873C19.3694 93.4676 17.5255 91.9027 15.6598 90.3242C15.3797 90.0857 15.3443 89.6664 15.5755 89.3814C16.2907 88.5126 16.9734 87.6877 17.6451 86.871C17.8518 86.6216 17.8491 86.2599 17.6424 86.0105C16.1575 84.2318 14.697 82.4861 13.2202 80.7184C13.0135 80.4718 12.66 80.406 12.3799 80.5677C11.4497 81.1021 10.5305 81.6338 9.57861 82.1846C9.26041 82.3683 8.85245 82.2559 8.67024 81.938C7.43279 79.7811 6.22798 77.6736 4.99869 75.5305C4.81647 75.2126 4.92526 74.8015 5.24074 74.6151C6.19806 74.0506 7.12275 73.5052 8.02296 72.9763C8.30036 72.8118 8.42003 72.472 8.30852 72.1678C7.51166 69.9753 6.73927 67.8459 5.95329 65.6808C5.8445 65.3794 5.5399 65.1985 5.22442 65.2478C4.18007 65.4177 3.12212 65.5877 2.03697 65.7631C1.67798 65.8206 1.33802 65.5767 1.27547 65.2149C0.84576 62.7429 0.43237 60.3696 0.013542 57.9579C-0.0490103 57.5961 0.19032 57.2508 0.546596 57.1823C1.64262 56.974 2.69513 56.7767 3.71229 56.5848C4.02777 56.5245 4.2535 56.2477 4.2535 55.9271V49.0071C4.2535 48.6837 4.02505 48.4069 3.70957 48.3494C2.66522 48.1548 1.62086 47.9575 0.543877 47.7574C0.184881 47.6889 -0.0544496 47.3436 0.00810269 46.9791C0.43509 44.5455 0.853919 42.1557 1.28091 39.7165C1.34346 39.3548 1.68614 39.1109 2.04513 39.1712C3.1466 39.352 4.19367 39.5247 5.21898 39.6946C5.53446 39.7467 5.84178 39.5631 5.95057 39.2616C6.74471 37.0664 7.52254 34.9233 8.30308 32.7664C8.41459 32.4622 8.2922 32.1224 8.0148 31.958C7.09555 31.4153 6.17902 30.8754 5.23802 30.3191C4.92254 30.1327 4.81375 29.7216 4.99869 29.4037C6.23886 27.2414 7.45183 25.1257 8.67296 22.999C8.85517 22.6811 9.26041 22.5687 9.57861 22.7523L12.388 24.3665C12.6681 24.5255 13.0217 24.4625 13.2284 24.2131C14.7242 22.4207 16.1738 20.6832 17.6424 18.9237C17.8491 18.6771 17.8518 18.3153 17.6451 18.0659C16.9625 17.2383 16.2771 16.4051 15.5755 15.5528C15.3416 15.2678 15.3797 14.8457 15.6598 14.6101C17.5608 13.0041 19.4102 11.4419 21.2786 9.86062C21.5587 9.62493 21.9776 9.66056 22.2142 9.9401C22.9485 10.8089 23.6474 11.6338 24.3138 12.4203C24.5232 12.667 24.8767 12.7245 25.1541 12.5628C27.1748 11.3844 29.1248 10.2498 31.0912 9.10422C31.3686 8.94253 31.4937 8.60543 31.3849 8.30123C31.0286 7.29269 30.6696 6.27594 30.3025 5.23452C30.1801 4.88646 30.3596 4.50278 30.7022 4.37671C33.0548 3.51617 35.3175 2.69125 37.5939 1.85812C37.9366 1.73205 38.3173 1.91019 38.4451 2.2555C38.8368 3.31611 39.2012 4.31094 39.5493 5.2537C39.6581 5.55242 39.9654 5.73056 40.2782 5.68123C42.5872 5.31399 44.82 4.96868 47.0393 4.56307C47.2813 4.51922 47.5995 4.03414 47.6158 3.7409C47.6675 2.7214 47.6539 1.69642 47.6458 0.674184C47.6458 0.301464 47.9422 0 48.3094 0H55.6307C55.9979 0 56.2943 0.298724 56.2943 0.668703V2.08558C56.2943 4.42056 56.2943 4.4096 58.5924 4.8015C60.2677 5.08926 61.9403 5.40443 63.632 5.71412C63.9502 5.77167 64.2629 5.59353 64.3744 5.28659C64.747 4.27805 65.1169 3.27774 65.4977 2.23906C65.6255 1.89374 66.0089 1.71561 66.3516 1.84167C68.6633 2.69125 70.9261 3.52439 73.2351 4.37397C73.5778 4.50004 73.7573 4.88372 73.6349 5.22903C73.2569 6.3006 72.8979 7.3201 72.5552 8.29301C72.4491 8.59721 72.5742 8.9343 72.8516 9.096C74.8669 10.2717 76.8142 11.4091 78.7941 12.5628C79.0715 12.7245 79.4251 12.6642 79.6345 12.4176C80.3225 11.6009 81.0161 10.7732 81.7259 9.93188C81.9625 9.6496 82.3841 9.61397 82.6642 9.8524C84.5652 11.4639 86.4119 13.026 88.2803 14.6101C88.5604 14.8457 88.5985 15.2678 88.3646 15.5528C87.6439 16.4298 86.9558 17.2657 86.2977 18.0687C86.0937 18.3181 86.0964 18.6798 86.3031 18.9265C87.8071 20.7298 89.2566 22.4618 90.7253 24.2213C90.932 24.4679 91.2855 24.5337 91.5656 24.372C92.4876 23.8403 93.4096 23.3059 94.3642 22.7551C94.6824 22.5714 95.0876 22.6838 95.2725 23.0017C96.5046 25.1503 97.7094 27.2551 98.9414 29.4037C99.1236 29.7216 99.0175 30.1327 98.702 30.3191C97.7474 30.8836 96.82 31.429 95.9198 31.9607C95.6424 32.1251 95.5228 32.465 95.6343 32.7692C96.4284 34.9534 97.1981 37.0828 97.9922 39.2643C98.101 39.5658 98.4083 39.7494 98.7211 39.6974C99.7654 39.5247 100.826 39.3493 101.906 39.1712C102.257 39.1136 102.597 39.3466 102.662 39.6974C102.662 39.6974 102.662 39.7001 102.662 39.7028C103.108 42.0871 103.554 44.4715 104 46.853L103.456 47.6779C102.371 47.9136 101.286 48.1466 100.211 48.3795C99.9041 48.4453 99.6866 48.7194 99.6866 49.0345V55.9024C99.6866 56.2176 99.9069 56.4917 100.214 56.5574C101.261 56.7822 102.281 57.0014 103.296 57.2207L103.967 58.2429C103.521 60.5505 103.078 62.8608 102.621 65.2204C102.553 65.5767 102.216 65.8124 101.86 65.7548C100.769 65.5767 99.7165 65.404 98.7184 65.2396C98.4029 65.1875 98.0983 65.3712 97.9868 65.6726C97.1763 67.9062 96.4039 70.0329 95.6315 72.1651C95.52 72.4693 95.6424 72.8091 95.9198 72.9735C96.8418 73.5189 97.7583 74.0588 98.6993 74.6151C99.0148 74.8015 99.1209 75.2126 98.9387 75.5305C97.6985 77.6928 96.4855 79.8085 95.2671 81.9298C95.0849 82.2477 94.6797 82.36 94.3615 82.1764C93.3688 81.6064 92.4468 81.0747 91.5548 80.5622C91.2746 80.4005 90.9211 80.4663 90.7144 80.7157C89.2104 82.5162 87.7608 84.2538 86.2949 86.0132C86.0882 86.2626 86.0855 86.6244 86.2922 86.8738C86.9748 87.7014 87.6656 88.5346 88.3673 89.3841C88.6012 89.6664 88.5631 90.0912 88.283 90.3297C86.3765 91.9411 84.5299 93.5032 82.6615 95.0791C82.3813 95.3148 81.9625 95.2791 81.7259 94.9996C80.9889 94.1281 80.2899 93.3004 79.6236 92.5139C79.4142 92.2672 79.0606 92.2097 78.7832 92.3714C76.7598 93.5526 74.8125 94.6927 72.8462 95.841C72.5688 96.0027 72.4464 96.3398 72.5525 96.644C72.906 97.6497 73.2677 98.6665 73.6349 99.7134C73.7573 100.061 73.5778 100.445 73.2324 100.568C70.8771 101.429 68.6144 102.254 66.338 103.084C65.9953 103.21 65.6146 103.032 65.4868 102.687C65.0924 101.618 64.7253 100.623 64.3799 99.6833C64.2684 99.3845 63.9638 99.2064 63.651 99.2557C61.3692 99.623 59.1744 99.9875 56.9742 100.314C56.3976 100.399 56.2725 100.675 56.278 101.202C56.2889 102.246 56.2644 103.29 56.2481 104.334C56.2426 104.699 55.9462 104.992 55.5845 104.992L55.5926 105ZM51.9374 26.2055C37.5422 26.2192 25.8939 38.0092 25.9102 52.5507C25.9265 66.947 37.632 78.7425 51.8939 78.7342C66.3652 78.726 78.038 66.9552 78.0299 52.3808C78.019 37.9489 66.2999 26.1918 51.9374 26.2055Z" fill="black"/>
<path d="M53.5203 75.4073H50.4118C50.2975 75.3826 50.1833 75.3443 50.0691 75.3333C45.9733 74.9743 42.231 73.6204 38.8885 71.2142C33.9931 67.6898 30.9526 62.9267 29.7069 57.0043C29.5057 56.0478 29.4105 55.0694 29.2664 54.102C29.2664 53.0277 29.2664 51.9534 29.2664 50.8791C29.2936 50.7503 29.3262 50.6215 29.3452 50.4899C29.454 49.7088 29.5193 48.9168 29.6689 48.144C30.376 44.4963 31.8256 41.1774 34.1645 38.2971C39.4025 31.8457 46.1908 28.9571 54.4069 29.7108C59.4873 30.1767 63.9203 32.276 67.6136 35.847C72.9523 41.0075 75.2722 47.3574 74.6358 54.7543C74.2088 59.701 72.2724 64.0476 68.9762 67.7501C65.5984 71.5431 61.4318 73.9794 56.4576 74.9688C55.4894 75.1606 54.5021 75.2648 53.5231 75.41L53.5203 75.4073ZM61.7283 34.8932C61.799 35.0056 61.8697 35.118 61.9404 35.2331C63.7381 38.1326 64.3664 41.2624 63.6348 44.6114C63.05 47.2834 61.7555 49.5417 59.5444 51.2134C57.3578 52.866 54.8829 53.6169 52.1687 53.6279C49.245 53.6388 46.7783 54.7077 44.918 56.9796C42.5655 59.8517 42.1222 63.124 43.4331 66.5525C44.6352 69.6987 46.9115 71.7705 50.2241 72.5269C52.1823 72.9737 54.1486 72.7133 56.0795 72.305C60.5942 71.3512 64.3745 69.0985 67.3308 65.5357C71.1737 60.9041 72.694 55.5463 71.8699 49.5746C71.2444 45.0416 69.2128 41.1801 65.9655 37.9764C64.7145 36.7404 63.322 35.6935 61.7283 34.8932ZM48.0674 41.6159C47.9994 43.77 49.7427 45.576 51.962 45.6528C54.0398 45.724 55.8565 43.9564 55.93 41.7858C56.0061 39.6043 54.2737 37.7736 52.0871 37.7133C49.9195 37.6558 48.1381 39.3878 48.0701 41.6159H48.0674Z" fill="black"/>
<path d="M48.0647 63.2746C48.0647 61.093 49.8651 59.2815 52.0218 59.298C54.1731 59.3144 55.9354 61.1013 55.9381 63.2718C55.9381 65.4533 54.1214 67.2813 51.981 67.2511C49.8243 67.221 48.0647 65.4369 48.0647 63.2746Z" fill="black"/>
</g>
<defs>
<clipPath id="clip0_138_1337">
<rect width="104" height="105" fill="white"/>
</clipPath>
</defs>
</svg>
