<svg width="154" height="105" viewBox="0 0 154 105" fill="none" xmlns="http://www.w3.org/2000/svg">
<g clip-path="url(#clip0_137_1315)">
<path d="M124.865 84.9442C108.79 84.9689 95.6639 71.7784 95.6558 55.5898C95.6476 39.3984 108.755 26.2025 124.837 26.208C140.888 26.2135 153.962 39.3491 154.003 55.5158C154.044 71.6962 140.95 84.9196 124.867 84.9442H124.865ZM113.013 65.0421C108.787 58.8237 108.741 52.6958 112.825 46.3431C107.842 48.5602 103.739 51.6489 100.222 55.5953C103.748 59.8048 107.883 62.9647 113.01 65.0421H113.013ZM124.905 49.3468C121.491 49.3111 118.673 52.0764 118.641 55.4912C118.608 58.9278 121.352 61.7644 124.745 61.8C128.154 61.8356 130.977 59.0649 131.012 55.6529C131.045 52.2162 128.301 49.3797 124.908 49.344L124.905 49.3468ZM137.133 64.335C141.873 62.1206 145.865 59.3197 149.312 55.62C145.767 52.1778 141.911 49.3385 137.373 47.1653C140.738 52.9753 140.664 58.5716 137.133 64.335Z" fill="black"/>
<path d="M89.0018 55.5763C89.0018 47.1709 91.4849 39.3466 95.7513 32.8103C95.7459 32.7993 95.7431 32.7883 95.7377 32.7746C95.6261 32.4704 95.7459 32.1306 96.0236 31.9662C96.1842 31.8703 96.3503 31.7743 96.5137 31.6784C97.2052 30.6918 97.9376 29.7381 98.7081 28.8172C97.5946 26.8742 96.4946 24.9585 95.3756 23.0072C95.1932 22.6866 94.7848 22.5769 94.4662 22.7606C93.5105 23.3114 92.5876 23.8431 91.6646 24.3775C91.3841 24.5392 91.0302 24.4762 90.8233 24.2268C89.353 22.4673 87.9046 20.7325 86.3962 18.932C86.1893 18.6853 86.1865 18.3235 86.3907 18.0742C87.0524 17.2712 87.7385 16.4353 88.46 15.5583C88.6941 15.276 88.656 14.854 88.3756 14.6155C86.5051 13.0342 84.6564 11.4693 82.7533 9.85788C82.4728 9.61945 82.0508 9.65508 81.8139 9.93736C81.1033 10.7787 80.409 11.6064 79.7202 12.4231C79.5133 12.6697 79.1566 12.73 78.8789 12.5683C76.8968 11.4145 74.9501 10.2772 72.9298 9.10148C72.6521 8.93979 72.5269 8.60269 72.6331 8.29849C72.9761 7.32284 73.3355 6.30608 73.714 5.23452C73.8365 4.8892 73.6568 4.50552 73.3137 4.37945C71.0022 3.52987 68.7369 2.69948 66.4226 1.84715C66.0796 1.72109 65.6957 1.89922 65.5677 2.24454C65.1838 3.28048 64.8135 4.28353 64.4432 5.29207C64.3316 5.59627 64.0158 5.77715 63.7 5.7196C62.0065 5.40991 60.332 5.09475 58.6548 4.80698C56.3569 4.41234 56.3542 4.42604 56.3542 2.09107V0.668703C56.3542 0.298724 56.0574 0 55.6898 0H48.3604C47.9901 0 47.6933 0.304205 47.6961 0.674184C47.7042 1.69642 47.7178 2.7214 47.6661 3.7409C47.6498 4.03414 47.3312 4.51922 47.0889 4.56307C44.8672 4.96868 42.6346 5.31399 40.3203 5.68123C40.0072 5.73056 39.6996 5.55242 39.5907 5.2537C39.2422 4.31094 38.8773 3.31611 38.4853 2.2555C38.3573 1.91019 37.9788 1.73205 37.6331 1.85812C35.3515 2.69125 33.0889 3.51617 30.7338 4.37671C30.3907 4.50278 30.211 4.88646 30.3336 5.23452C30.7011 6.27594 31.0605 7.29543 31.4172 8.30123C31.5234 8.60543 31.4009 8.94253 31.1231 9.10422C29.1546 10.2498 27.2025 11.3871 25.1795 12.5628C24.9018 12.7245 24.5479 12.667 24.3382 12.4203C23.6712 11.6338 22.9742 10.8089 22.2363 9.9401C21.9994 9.66056 21.5802 9.62493 21.2997 9.86062C19.4292 11.4392 17.5778 13.0013 15.6747 14.6101C15.3942 14.8457 15.3561 15.2705 15.5903 15.5528C16.2927 16.4024 16.9788 17.2383 17.6622 18.0659C17.8692 18.3153 17.8664 18.6771 17.6595 18.9237C16.1893 20.6859 14.7381 22.4207 13.2406 24.2131C13.0337 24.4597 12.6797 24.5255 12.3993 24.3665L9.58677 22.7523C9.26822 22.5687 8.86526 22.6811 8.68012 22.999C7.46036 25.1229 6.24332 27.2414 5.00178 29.4037C4.81936 29.7216 4.92555 30.1327 5.24138 30.3191C6.18342 30.8754 7.10097 31.4153 8.02123 31.958C8.29894 32.1224 8.42146 32.4622 8.30983 32.7664C7.5257 34.9233 6.74974 37.0664 5.95472 39.2616C5.84581 39.5631 5.53815 39.7467 5.22232 39.6946C4.19587 39.5247 3.14764 39.352 2.04496 39.1712C1.68556 39.1109 1.34523 39.3575 1.27988 39.7165C0.852425 42.1557 0.433132 44.5455 0.00567228 46.9791C-0.0569493 47.3408 0.182646 47.6889 0.542039 47.7574C1.62022 47.9602 2.66573 48.1548 3.71123 48.3494C4.02706 48.4097 4.25577 48.6865 4.25577 49.0071V55.9271C4.25577 56.2505 4.02979 56.5245 3.71396 56.5848C2.69568 56.7767 1.642 56.9767 0.544762 57.1823C0.185369 57.2508 -0.0542266 57.5961 0.0111176 57.9579C0.43041 60.3696 0.844257 62.7429 1.27444 65.2149C1.33706 65.5767 1.68012 65.8206 2.03679 65.7631C3.12314 65.5877 4.18226 65.4177 5.22777 65.2478C5.5436 65.1958 5.84854 65.3794 5.95744 65.6808C6.7443 67.8486 7.51754 69.9753 8.31528 72.1678C8.42691 72.472 8.30711 72.8146 8.0294 72.9763C7.13092 73.5052 6.20248 74.0506 5.2441 74.6151C4.92827 74.8015 4.81936 75.2098 5.00178 75.5305C6.22971 77.6736 7.43858 79.7811 8.6774 81.938C8.85981 82.2586 9.26822 82.3683 9.58677 82.1846C10.5397 81.6365 11.4627 81.1048 12.3911 80.5677C12.6716 80.406 13.0255 80.4718 13.2324 80.7184C14.7108 82.4861 16.1729 84.2318 17.6595 86.0105C17.8664 86.2599 17.8692 86.6216 17.6622 86.871C16.9897 87.685 16.3091 88.5126 15.5903 89.3814C15.3561 89.6637 15.3942 90.0857 15.6747 90.3242C17.5397 91.9055 19.3884 93.4676 21.3024 95.0873C21.5829 95.3257 22.0049 95.2901 22.2418 95.0078C22.9469 94.1665 23.6385 93.3416 24.3273 92.5194C24.5343 92.27 24.8909 92.2097 25.1686 92.3714C27.1426 93.5197 29.092 94.6543 31.1177 95.8355C31.3954 95.9972 31.5206 96.337 31.4145 96.6412C31.0714 97.6114 30.712 98.6254 30.3308 99.6997C30.2083 100.048 30.388 100.429 30.7311 100.555C33.0372 101.402 35.3024 102.232 37.6276 103.084C37.9707 103.21 38.3546 103.032 38.4825 102.687C38.8637 101.654 39.2313 100.651 39.6043 99.6422C39.7159 99.3379 40.0317 99.1571 40.3503 99.2146C42.0737 99.5298 43.7809 99.845 45.488 100.157C45.5206 100.163 45.5533 100.174 45.5887 100.179C46.9918 100.413 47.6942 101.269 47.6961 102.747C47.6961 103.282 47.7124 103.813 47.7287 104.348C47.7396 104.709 48.0337 105 48.3931 105H55.6517C56.0138 105 56.3106 104.707 56.3161 104.342C56.3351 103.298 56.3569 102.254 56.346 101.21C56.3406 100.684 56.4658 100.407 57.043 100.322C59.2457 99.9957 61.4429 99.6312 63.7272 99.264C64.0403 99.2146 64.348 99.3928 64.4569 99.6915C64.8054 100.632 65.1702 101.629 65.565 102.695C65.693 103.04 66.0714 103.216 66.4172 103.093C68.6961 102.262 70.9586 101.437 73.3165 100.577C73.6595 100.451 73.8419 100.067 73.7194 99.7216C73.3491 98.6747 72.9897 97.658 72.6358 96.6522C72.5296 96.348 72.6521 96.0109 72.9298 95.8492C74.8956 94.7009 76.8478 93.5635 78.8734 92.3796C79.1511 92.2179 79.5051 92.2755 79.7147 92.5221C80.3818 93.3087 81.0788 94.1363 81.8194 95.0078C82.0562 95.2874 82.4755 95.323 82.756 95.0873C84.6264 93.5087 86.4751 91.9466 88.3837 90.3379C88.6642 90.0994 88.7023 89.6774 88.4681 89.3924C87.7657 88.5428 87.0769 87.7096 86.3907 86.882C86.1838 86.6326 86.1865 86.2708 86.3935 86.0215C87.8637 84.262 89.3122 82.5272 90.8178 80.7239C91.0247 80.4772 91.3787 80.4115 91.6591 80.5704C92.5494 81.0829 93.4751 81.6146 94.4689 82.1846C94.7875 82.3683 95.1932 82.2559 95.3756 81.938C95.8058 81.1898 96.2359 80.4389 96.6661 79.6907C91.8415 72.8913 89.0045 64.5682 89.0045 55.5763H89.0018ZM51.9516 78.737C37.6739 78.7452 25.9555 66.947 25.9392 52.5534C25.9228 38.0146 37.584 26.2219 51.9952 26.2082C66.3736 26.1945 78.1056 37.9516 78.1165 52.3835C78.1274 66.9579 66.439 78.7288 51.9516 78.737Z" fill="black"/>
</g>
<defs>
<clipPath id="clip0_137_1315">
<rect width="154" height="105" fill="white"/>
</clipPath>
</defs>
</svg>
