<svg width="296" height="296" viewBox="0 0 296 296" fill="none" xmlns="http://www.w3.org/2000/svg">
<circle cx="148" cy="148" r="147.775" fill="white" stroke="#BDBDBD" stroke-width="0.450028"/>
<path d="M265.896 148C265.896 213.111 213.112 265.895 148.001 265.895C82.8892 265.895 30.1059 213.111 30.1059 148C30.1059 82.8882 82.8892 30.1049 148.001 30.1049C213.112 30.1049 265.896 82.8882 265.896 148Z" fill="white" stroke="#BDBDBD" stroke-width="0.450028"/>
<circle cx="148.001" cy="148" r="88.9485" fill="white" stroke="#BDBDBD" stroke-width="0.450028"/>
<path d="M207.068 148C207.068 180.622 180.622 207.068 147.999 207.068C115.377 207.068 88.9311 180.622 88.9311 148C88.9311 115.377 115.377 88.9316 147.999 88.9316C180.622 88.9316 207.068 115.377 207.068 148Z" fill="white" stroke="#BDBDBD" stroke-width="0.450028"/>
<path d="M179.056 148C179.056 165.152 165.152 179.056 148 179.056C130.849 179.056 116.945 165.152 116.945 148C116.945 130.848 130.849 116.944 148 116.944C165.152 116.944 179.056 130.848 179.056 148Z" fill="white" stroke="#BDBDBD" stroke-width="0.450028"/>
<path d="M147.533 146.6L241.842 33.6154" stroke="#BDBDBD" stroke-width="0.450028"/>
<path d="M147.533 146.6L293.199 120.455" stroke="#BDBDBD" stroke-width="0.450028"/>
<path d="M147.533 146.6L19.6089 220.366" stroke="#BDBDBD" stroke-width="0.450028"/>
<path d="M147.533 146.6L54.1578 33.6154" stroke="#BDBDBD" stroke-width="0.450028"/>
<path d="M147.533 146.6L2.80133 121.388" stroke="#BDBDBD" stroke-width="0.450028"/>
<path d="M147.533 146.6L276.953 220.305" stroke="#BDBDBD" stroke-width="0.450028"/>
<path d="M147.533 146.6L147.533 0.000235796" stroke="#BDBDBD" stroke-width="0.450028"/>
<path d="M147.533 146.6L97.2413 286.347" stroke="#BDBDBD" stroke-width="0.450028"/>
<path d="M147.533 146.6L199.823 286.663" stroke="#BDBDBD" stroke-width="0.450028"/>
<path d="M232.973 43.8864L147.535 14.4731L101.781 91.5079L32.216 126.524L19.6104 220.366L107.383 258.65L189.087 258.183L250.714 205.426L279.661 122.789L232.973 43.8864Z" fill="#BCCF00" fill-opacity="0.3" stroke="#BCCF00" stroke-width="0.565008"/>
</svg>
