<svg width="296" height="296" viewBox="0 0 296 296" fill="none" xmlns="http://www.w3.org/2000/svg">
<circle cx="148" cy="148" r="147.775" fill="white" stroke="#BDBDBD" stroke-width="0.450028"/>
<circle cx="148.001" cy="148" r="117.895" fill="white" stroke="#BDBDBD" stroke-width="0.450028"/>
<circle cx="148.001" cy="148" r="88.9485" fill="white" stroke="#BDBDBD" stroke-width="0.450028"/>
<circle cx="147.999" cy="147.999" r="59.0684" fill="white" stroke="#BDBDBD" stroke-width="0.450028"/>
<path d="M179.056 148C179.056 165.151 165.152 179.055 148 179.055C130.849 179.055 116.945 165.151 116.945 148C116.945 130.848 130.849 116.944 148 116.944C165.152 116.944 179.056 130.848 179.056 148Z" fill="white" stroke="#BDBDBD" stroke-width="0.450028"/>
<path d="M147.533 146.599L241.842 33.6149" stroke="#BDBDBD" stroke-width="0.450028"/>
<path d="M147.533 146.599L293.199 120.454" stroke="#BDBDBD" stroke-width="0.450028"/>
<path d="M147.533 146.599L19.6089 220.366" stroke="#BDBDBD" stroke-width="0.450028"/>
<path d="M147.533 146.599L54.1578 33.6149" stroke="#BDBDBD" stroke-width="0.450028"/>
<path d="M147.533 146.599L2.80133 121.388" stroke="#BDBDBD" stroke-width="0.450028"/>
<path d="M147.533 146.599L276.953 220.304" stroke="#BDBDBD" stroke-width="0.450028"/>
<path d="M147.533 146.599L147.533 -0.000252485" stroke="#BDBDBD" stroke-width="0.450028"/>
<path d="M147.533 146.599L97.2413 286.347" stroke="#BDBDBD" stroke-width="0.450028"/>
<path d="M147.533 146.599L199.823 286.662" stroke="#BDBDBD" stroke-width="0.450028"/>
<path d="M241.373 34.0815L147.531 0.466309L137.833 134.988L2.79883 121.387L19.6064 220.365L107.379 258.649L189.083 258.182L276.389 219.899L292.729 120.454L241.373 34.0815Z" fill="#97D4E8" fill-opacity="0.3" stroke="#9DBFDD" stroke-width="0.565008"/>
</svg>
