<svg width="296" height="296" viewBox="0 0 296 296" fill="none" xmlns="http://www.w3.org/2000/svg">
<path d="M295.772 148C295.772 229.614 229.612 295.775 147.999 295.775C66.3855 295.775 0.225014 229.614 0.225014 148C0.225014 66.3861 66.3855 0.225014 147.999 0.225014C229.612 0.225014 295.772 66.3861 295.772 148Z" fill="white" stroke="#BDBDBD" stroke-width="0.450028"/>
<path d="M265.892 147.999C265.892 213.111 213.11 265.894 147.999 265.894C82.8877 265.894 30.1049 213.111 30.1049 147.999C30.1049 82.8877 82.8877 30.1044 147.999 30.1044C213.11 30.1044 265.892 82.8877 265.892 147.999Z" fill="white" stroke="#BDBDBD" stroke-width="0.450028"/>
<path d="M236.948 148.001C236.948 197.126 197.125 236.949 148.001 236.949C98.8764 236.949 59.0531 197.126 59.0531 148.001C59.0531 98.8758 98.8764 59.0522 148.001 59.0522C197.125 59.0522 236.948 98.8758 236.948 148.001Z" fill="white" stroke="#BDBDBD" stroke-width="0.450028"/>
<path d="M207.066 148.001C207.066 180.623 180.62 207.069 147.998 207.069C115.376 207.069 88.9301 180.623 88.9301 148.001C88.9301 115.378 115.376 88.9325 147.998 88.9325C180.62 88.9325 207.066 115.378 207.066 148.001Z" fill="white" stroke="#BDBDBD" stroke-width="0.450028"/>
<path d="M179.057 148C179.057 165.152 165.152 179.056 148 179.056C130.848 179.056 116.944 165.152 116.944 148C116.944 130.849 130.848 116.944 148 116.944C165.152 116.944 179.057 130.849 179.057 148Z" fill="white" stroke="#BDBDBD" stroke-width="0.450028"/>
<path d="M147.53 146.6L241.839 33.6148" stroke="#BDBDBD" stroke-width="0.450028"/>
<path d="M147.53 146.6L293.195 120.455" stroke="#BDBDBD" stroke-width="0.450028"/>
<path d="M147.53 146.6L19.6072 220.367" stroke="#BDBDBD" stroke-width="0.450028"/>
<path d="M147.53 146.6L54.1549 33.6148" stroke="#BDBDBD" stroke-width="0.450028"/>
<path d="M147.53 146.6L2.79962 121.389" stroke="#BDBDBD" stroke-width="0.450028"/>
<path d="M147.53 146.6L276.949 220.305" stroke="#BDBDBD" stroke-width="0.450028"/>
<path d="M147.53 146.6L147.53 0.000695348" stroke="#BDBDBD" stroke-width="0.450028"/>
<path d="M147.53 146.6L97.2384 286.349" stroke="#BDBDBD" stroke-width="0.450028"/>
<path d="M147.53 146.6L199.82 286.665" stroke="#BDBDBD" stroke-width="0.450028"/>
<path d="M194.351 90.0091L147.374 73.1877L54.4844 34.1548L74.8139 133.931L120.396 161.967L120.861 220.375L158.537 176.919L187.374 169.443L178.072 140.94L194.351 90.0091Z" fill="#97D4E8" fill-opacity="0.3" stroke="#9DBFDD" stroke-width="0.565008"/>
</svg>
