<svg width="158" height="41" viewBox="0 0 158 41" fill="none" xmlns="http://www.w3.org/2000/svg">
<path d="M144.414 23.2107C144.315 23.6417 144.182 24.0562 144.016 24.4541C143.568 25.4986 142.955 26.3939 142.142 27.1565C141.346 27.9191 140.4 28.516 139.289 28.9305C138.194 29.3615 136.983 29.5605 135.689 29.5605C134.395 29.5605 133.184 29.3449 132.09 28.9305C130.995 28.4994 130.049 27.9191 129.237 27.1565C128.44 26.3939 127.81 25.4986 127.362 24.4541C126.914 23.4096 126.699 22.2657 126.699 21.0222C126.699 19.7788 126.914 18.6349 127.362 17.5904C127.81 16.5459 128.424 15.6506 129.237 14.888C130.033 14.1254 130.978 13.5285 132.09 13.114C133.184 12.683 134.379 12.484 135.689 12.484C137 12.484 138.194 12.6996 139.289 13.114C140.384 13.5451 141.329 14.1254 142.142 14.888C142.955 15.6506 143.568 16.5459 144.016 17.5904C144.05 17.6567 144.066 17.7064 144.083 17.7727H158C156.656 7.77558 148.047 0 137.696 0H20.5027C9.22289 0.0165791 0 9.23453 0 20.5083C0 31.782 9.22289 41 20.5027 41H69.3541V13.0146H73.0864L73.7665 14.2911C74.4466 13.7109 75.1931 13.2798 76.0225 12.9482C76.8519 12.6332 77.7476 12.4675 78.6931 12.4675C79.9206 12.4675 81.0486 12.683 82.0771 13.0975C83.1055 13.5285 83.9847 14.1088 84.7311 14.8714C85.4776 15.6175 86.0582 16.5293 86.4729 17.5738C86.8876 18.6183 87.1032 19.7622 87.1032 21.0222C87.1032 22.2822 86.9041 23.4096 86.4729 24.4707C86.0582 25.5152 85.4776 26.427 84.7477 27.1731C84.0013 27.9191 83.1221 28.516 82.0937 28.947C81.0652 29.3781 79.9372 29.577 78.7097 29.577C77.9798 29.577 77.2831 29.4776 76.6362 29.2952C75.9893 29.1128 75.3755 28.8476 74.795 28.516V40.9834H137.696C148.047 40.9834 156.656 33.2078 158 23.2107H144.414ZM38.8821 6.16741V10.9919L33.4413 6.16741H38.8821ZM28.7801 26.2944C28.4483 26.9741 27.9672 27.5544 27.3369 28.0518C26.7066 28.5326 25.9601 28.9139 25.0975 29.1791C24.2184 29.4444 23.2563 29.577 22.1946 29.577C21.133 29.577 20.1212 29.4444 19.2586 29.1626C18.3794 28.8807 17.6496 28.4994 17.0524 27.9854C16.4552 27.4881 15.9742 26.8746 15.6424 26.1617C15.3107 25.4489 15.1448 24.6531 15.1448 23.7909H20.4529C20.4529 24.3712 20.6354 24.8023 20.9837 25.0841C21.3321 25.366 21.7799 25.5152 22.2942 25.5152C22.7089 25.5152 23.0738 25.4157 23.389 25.2002C23.7041 25.0012 23.87 24.6862 23.87 24.2717C23.87 23.8241 23.6046 23.4925 23.0738 23.3102C22.543 23.1278 21.8961 22.962 21.1496 22.8128C20.5359 22.7133 19.8889 22.5807 19.2088 22.4149C18.5287 22.2491 17.8984 21.9838 17.3178 21.6191C16.7372 21.2543 16.2728 20.757 15.9078 20.1436C15.5429 19.5301 15.3604 18.7343 15.3604 17.7727C15.3604 16.9604 15.5263 16.2309 15.8581 15.5843C16.1898 14.9377 16.6377 14.3906 17.2349 13.9264C17.832 13.4622 18.5453 13.114 19.3913 12.8653C20.2373 12.6167 21.1662 12.5006 22.1946 12.5006C23.2231 12.5006 24.152 12.6332 24.9814 12.8819C25.8108 13.1472 26.5241 13.5119 27.1047 13.9761C27.6852 14.4404 28.1497 15.0206 28.4649 15.7004C28.7966 16.3801 28.9625 17.1096 28.9791 17.922H23.8203C23.8203 17.408 23.671 17.0267 23.3558 16.778C23.0406 16.5293 22.6425 16.4133 22.1283 16.4133C21.6804 16.4133 21.3155 16.5127 21.0501 16.7283C20.7847 16.9438 20.652 17.2256 20.652 17.607C20.652 18.0546 20.9174 18.3696 21.4648 18.5354C22.0122 18.7012 22.6591 18.8504 23.4056 18.9996C24.0359 19.1157 24.6994 19.2649 25.3961 19.4141C26.0928 19.5799 26.7231 19.8286 27.3037 20.1767C27.8843 20.5249 28.3654 21.0057 28.7469 21.6191C29.1284 22.2325 29.3109 23.0449 29.3109 24.0562C29.3109 24.8852 29.145 25.6478 28.8132 26.3275L28.7801 26.2944ZM38.9484 29.0465H33.4247V17.8556H30.7374V13.0311H38.9484V29.0631V29.0465ZM66.4512 29.0465H60.9275V19.6628C60.9275 18.0214 60.3303 17.1925 59.1525 17.1925C57.6099 17.1925 56.8302 18.2038 56.8302 20.243V29.0299H51.4557V19.6462C51.4557 18.0049 50.8752 17.1759 49.6974 17.1759C48.1547 17.1759 47.3751 18.1872 47.3751 20.2264V29.0133H41.8513V13.0146H45.7163L46.5125 14.7388C47.0931 14.059 47.7732 13.5285 48.5695 13.1306C49.3657 12.7327 50.2448 12.5338 51.1903 12.5338C52.1359 12.5338 53.0482 12.7493 53.8278 13.1638C54.624 13.5782 55.271 14.1585 55.7852 14.9211C56.3658 14.1917 57.0625 13.6114 57.9085 13.1803C58.7544 12.7493 59.6834 12.5503 60.6786 12.5503C61.5412 12.5503 62.3374 12.7161 63.0341 13.0311C63.7308 13.3461 64.328 13.7938 64.8256 14.374C65.3233 14.9543 65.7048 15.634 65.9868 16.4133C66.2688 17.1925 66.4015 18.0546 66.4015 19.0162V29.0797L66.4512 29.0465ZM106.113 21.6025C106.096 21.8346 106.063 22.0833 106.03 22.3486H94.1199C94.3024 23.277 94.6673 23.9733 95.2313 24.4375C95.7953 24.9017 96.5086 25.1338 97.3877 25.1338C98.0346 25.1338 98.6152 25.0012 99.1294 24.736C99.6271 24.4707 100.025 24.1059 100.307 23.6252H105.798C105.516 24.537 105.118 25.366 104.587 26.0954C104.056 26.8415 103.426 27.4715 102.696 27.9854C101.966 28.4994 101.153 28.8973 100.257 29.1791C99.3617 29.461 98.3996 29.5936 97.3877 29.5936C96.1436 29.5936 94.9825 29.3781 93.9208 28.947C92.8592 28.516 91.9469 27.9191 91.1507 27.1565C90.371 26.3939 89.7573 25.4986 89.326 24.4541C88.8947 23.4096 88.6791 22.2822 88.6791 21.0554C88.6791 19.8285 88.8947 18.6846 89.326 17.6401C89.7573 16.5956 90.371 15.6838 91.1341 14.9211C91.9137 14.1585 92.826 13.5617 93.9043 13.1472C94.9659 12.7161 96.127 12.5172 97.3711 12.5172C98.6152 12.5172 99.8427 12.7327 100.921 13.1638C101.999 13.5948 102.928 14.1917 103.691 14.9377C104.471 15.6838 105.068 16.5791 105.483 17.5904C105.914 18.6017 106.113 19.7125 106.113 20.9062C106.113 21.1383 106.113 21.387 106.08 21.6191L106.113 21.6025ZM124.161 25.2665C123.68 26.1617 123.049 26.941 122.303 27.571C121.556 28.201 120.694 28.6983 119.715 29.0631C118.736 29.4112 117.691 29.5936 116.563 29.5936C115.269 29.5936 114.092 29.3781 113.014 28.9636C111.935 28.5326 111.006 27.9523 110.21 27.1896C109.414 26.427 108.8 25.5152 108.369 24.4707C107.938 23.4262 107.722 22.2657 107.722 21.0222C107.722 19.7788 107.938 18.6349 108.369 17.5904C108.8 16.5459 109.414 15.6506 110.194 14.9046C110.973 14.1585 111.902 13.5617 112.997 13.1472C114.092 12.7327 115.253 12.484 116.547 12.484C117.675 12.484 118.736 12.6996 119.715 13.0311C120.677 13.3627 121.54 13.8435 122.286 14.4735C123.033 15.1035 123.646 15.8496 124.127 16.7117C124.609 17.5738 124.924 18.552 125.056 19.613H119.682C119.45 18.9664 119.052 18.4359 118.488 18.0546C117.924 17.6733 117.277 17.4743 116.563 17.4743C115.568 17.4743 114.772 17.8059 114.158 18.4525C113.544 19.0991 113.229 19.9612 113.229 21.0388C113.229 22.1165 113.544 22.9454 114.158 23.6252C114.788 24.3049 115.585 24.6365 116.547 24.6365C117.293 24.6365 117.957 24.4209 118.504 24.0065C119.052 23.5754 119.45 23.0117 119.665 22.2988H125.106C124.94 23.393 124.625 24.3878 124.144 25.2831L124.161 25.2665Z" fill="white"/>
</svg>
